<?xml version="1.0" encoding="UTF-8"?>
<svg xmlns="http://www.w3.org/2000/svg" version="1.1" viewBox="0 0 24 24" fill="#bf1313">
  <path d="M5.4,7.7c.6-.9,1.4-1.7,2.3-2.3.1-1.2.3-2.3.5-3.2-2.7,1.1-4.9,3.3-6,6,1-.2,2-.4,3.2-.5M16.3,5.4h0c.9.6,1.7,1.4,2.3,2.3,1.2.1,2.3.3,3.2.5-1.1-2.8-3.3-4.9-6-6,.2,1,.4,2,.5,3.2M7.6,18.6c-.9-.6-1.7-1.4-2.3-2.3h0c-1.2-.1-2.3-.3-3.2-.5,1.1,2.8,3.3,4.9,6,6-.2-1-.4-2-.5-3.2M18.6,16.4h0c-.6.9-1.4,1.7-2.3,2.3h0c-.1,1.2-.3,2.3-.5,3.2,2.8-1.1,5-3.3,6-6-.9.2-2,.4-3.2.5M10,0h3.9c.9,1.9,1.2,4.6,1.3,5.5,0,.2,0,.4,0,.6l-3.3,3-3.3-3c0-.2,0-.3,0-.6.1-.9.4-3.8,1.3-5.6M8.7,17.8c0,.2,0,.4,0,.5.1,1,.4,3.8,1.3,5.6h3.9c.9-1.8,1.2-4.6,1.3-5.5,0-.2,0-.4,0-.6l-3.3-3-3.3,3ZM6.2,8.7c-.2,0-.3,0-.6,0C4.7,8.9,1.9,9.2,0,10.1v3.9c1.8.9,4.6,1.2,5.5,1.3.2,0,.4,0,.6,0l3-3.3-2.9-3.3h0ZM24,10c-1.9-.9-4.7-1.2-5.6-1.3-.2,0-.4,0-.5,0l-3,3.3,3,3.3c.2,0,.4,0,.6,0,.9-.1,3.7-.4,5.5-1.3v-3.9Z"/>
</svg>