<?xml version="1.0" encoding="UTF-8"?>
<svg xmlns="http://www.w3.org/2000/svg" version="1.1" viewBox="0 0 88 88">
  <circle cx="44" cy="44" r="41.6" fill="#001b36" stroke="#fc0" stroke-width="4.6"/>
  <path d="M10.7,50.5l6.5-6.8,3.9,3.6c-.7-5.2.5-9.5,3.7-12.9,1.7-1.8,3.5-3,5.5-3.6,2-.6,4.1-.7,6.5-.1-.4-2.6-.2-5,.4-7.1.6-2.1,1.7-4,3.2-5.6,1.9-2.1,4-3.4,6.2-4,2.2-.6,4.4-.6,6.7.3,1.7.6,3.9,2.2,6.6,4.7l18.1,16.8-7,7.4-16.2-15c-2.8-2.6-4.9-4-6.2-4.3-1.7-.3-3.2.3-4.6,1.7-1,1-1.6,2.3-1.8,3.8-.2,1.5,0,3,1,4.6.9,1.5,2.6,3.6,5.3,6l13.6,12.6-7,7.4-15.6-14.4c-2.8-2.5-4.7-4.1-5.7-4.5-1.1-.5-2-.6-2.9-.4-.9.2-1.8.8-2.7,1.7-1.1,1.1-1.7,2.5-2,3.9-.2,1.5,0,3,.8,4.5.8,1.5,2.6,3.5,5.3,6l13.8,12.7-7,7.4-28.4-26.2Z" fill="#fff" stroke-width="0"/>
</svg>