<?xml version="1.0" encoding="UTF-8"?>
<svg xmlns="http://www.w3.org/2000/svg" version="1.1" viewBox="0 0 450 78">
  <g id="Layer_2" data-name="Layer 2">
    <g>
      <path d="M62.6,5.9c-1.1-1.7-4.4-2.7-8.3-2.3,1.1,1.4,1.4,2.8,1.4,4.3,0,10.4-21.2,40.5-30,45.5,0-.2,0-.5,0-.9.2-1.3.9-3.2,1.2-4,2.3-7,7.7-20.2,10.4-26.4,3.7-8.8,3.2-6.1-3.1-11.5h-.1l-.8-.9C21.7,14.1,7.5,21.3,4.5,26.7c-2.7,4.4-.9,9.8,3.8,12.1,0-3.1.9-5.8,2.3-8.2,3.2-5.1,13.1-13,22-16.1-3.9,9.9-10.1,25.1-12.4,32.6-.8,2.3-1.3,4.3-.4,6.5.8,2,2.6,3.4,4.4,3.5,7.2.6,44.9-41.7,38.3-51.1Z" fill="#fff" stroke="#fff" stroke-miterlimit="10" stroke-width="3"/>
      <path d="M58.4,52.7c-.4,0-.7-.5-.6-1.5,0-2.1,2.4-8.3,5.6-15.5,3.3-7.9,2.9-5.5-2.9-10.4h0c-3.9,9.9-8,19.9-8.2,23.6-.1,4.2,3.7,5.7,5.7,5.7s4.4-3.5,7-7.1c-.2,4.1,1.2,7.1,5.5,7.1s6.9-6.7,10.2-12.7c-1.1,3.4-1.9,5.9-1.9,6.9,0,4.3,3.7,5.8,5.7,5.8s4.4-3.4,6.9-7c0,5,2.8,7,5.9,7,5.5,0,11.1-3.5,14.4-7.3,0,2.6.5,4.7,1.9,6,.8.8,2,1.3,3.5,1.3h1c12.2-.5,23-22.7,16.6-29-1.2-1.6-4.4-1.1-4.5-.8,5.2,3.5-4.5,26-11.6,27.8-.8.2-1.3.2-1.4-.9-.4-4,5.8-19.4,10.4-22.3,1.1-.7,2.2-.9,3.4-.5-1-2.5-3.2-4.6-6.1-4.6-4.7,0-11.9,12.1-13.1,21-2.7,3.6-9,7.5-13.3,7.4-1.3,0-2-.7-1.6-2.8.3-1.5.9-3.4,1.7-5.6,6.8.8,15.1-5.7,14.7-12.4-.2-1.2-.5-2.1-1.5-3.4-1.5-1.9-3.8-4.3-6.3-4.3-4.6,0-12.2,11.9-13.9,20.8-2.4,3.4-5.8,7.6-6.7,7.6s-.7-.5-.7-1.4c0-2.1,8.5-23.5,11.6-30.8,3.4-7.9,2.9-5.4-2.8-10.4-.3.5-1.7,4.4-2.1,5.2-.8,2.1-1.7,4.4-2.7,6.8-1.7,4.3-3.5,8.9-5.1,13-3.6,6.8-10.3,17.6-12.4,17.6s5.3-20,10.8-23.2c1.1-.7,2.2-1,3.4-.5-.9-2.5-3.1-4.6-5.9-4.6-4.6,0-12.1,11.7-13.8,20.5-2.4,3.5-5.8,7.9-6.9,7.9ZM109.4,28.9c.2,0,.5,0,.7.1-1.1,5.2-4.7,13.7-11,14,2.7-6.6,7.1-14.2,10.3-14.2Z" fill="#fff" stroke="#fff" stroke-miterlimit="10" stroke-width="3"/>
      <path d="M65.7,24.4c2,0,4.1-2,4.4-4.6.4-2.5-1-4.6-3.1-4.6s-4.1,2.1-4.4,4.6c-.3,2.5,1.1,4.6,3.2,4.6Z" fill="#fff" stroke="#fff" stroke-miterlimit="10" stroke-width="3"/>
      <path d="M157.5,25.2c-1.1,2.9-2.6,6.8-4.3,10.9-3.7,6.8-9.9,16.6-11.8,16.6-2.9,0,5.2-20.1,10.7-23.3,1.1-.7,2.2-1,3.4-.5-.9-2.4-3.1-4.6-5.9-4.6-7.4,0-22.4,30.2-8.7,30.2s5.8-5.2,9.1-10.5c-1.7,4.1-3.2,8.2-4.6,11.6l-.9,2.5c-1.3,3.1-2.9,5.5-5.5,7.6-1.3,1-5.4,3.3-6.9,2-.3-1.7,2.3-3.9,6.2-6.2.8-.5,1.8-1.1,2.5-1.4-.9-2.5-1.4-1.2-4.4-.5-25.9,5.8-83.5-9.2-100.7-1-6.3,3.1-8.4,8.7-5.7,14.7,2.7-2.8,5.7-4.9,10.5-6.5,24.7-7.9,69.5.4,93.6-4.8-2.3,1.7-4,3.5-4.3,5.3-.1.8.2,1.4.9,1.9,1.3.9,3.9,1,6.2.4,3.5-.8,6.7-2.7,9.3-5.2,3.9-3.7,4.7-6.1,6.5-10.7l1-2.5c2.1-4.9,4.9-11.3,6.7-15.7,3.2-7.8,2.6-5.6-3.1-10.4Z" fill="#fff" stroke="#fff" stroke-miterlimit="10" stroke-width="3"/>
      <path d="M249.3,44.1c-2,3.9-9.2,8.6-14,8.5-1.3,0-2-.7-1.6-2.8.3-1.5.9-3.4,1.7-5.6,6.8.8,15.1-5.7,14.7-12.4-.2-1.2-.5-2.1-1.5-3.4-1.5-1.9-3.8-4.3-6.3-4.3-4.6,0-11.9,11.4-13.8,20.3-2.4,3.5-6.3,8.2-7.2,8.2s-.8-.5-.7-1.5c0-1,.4-2.2,1.3-4.9,1.7-4.6,4.7-10.8,4.8-15.8,0-2-.4-3.7-1.4-4.8-.9-.9-2.2-1.4-4-1.4s-6.8,6.5-10.3,12.5c.7-2,1.1-4.3,1.2-6.3,0-2-.4-3.7-1.4-4.8-.9-.9-2.2-1.4-4-1.4s-6.2,5.6-9.5,11.2c3.1-7.8,3.5-5-2.8-10.4-2.5,6.2-4.9,12.2-6.7,17.3-.2.6-.4,1.2-.6,1.7-2.4,3.5-6.2,8.6-7.3,8.6s-.7-.7-.7-1.6c0-2.1,2.5-8.3,5.6-15.6,3.4-7.9,2.9-5.4-2.8-10.4-1.6,4.1-3.2,8.1-4.6,11.7-3.8,6.7-9.5,15.8-11.4,15.8-2.9,0,5-20.2,10.5-23.3,1.2-.7,2.2-.9,3.5-.5-.9-2.4-3.1-4.6-5.9-4.6-7.3,0-22.1,30.2-8.5,30.2s6.1-5.7,9.5-11.3c-.8,2.3-1.3,4.3-1.3,5.5-.1,4.3,3.7,5.8,5.8,5.8s4.2-3.3,6.7-6.8c0,.1,0,.2,0,.3,0,3.8,3.1,5.9,5.8,5.7-.5-1.1-.5-1.9-.3-3.3,0-.6.5-2.2,1.4-4.6.3-.7.5-1.6.9-2.4,3.7-6.7,10.2-17.3,12.2-17.3s.8.6.7,1.7c-.2,3.2-3,9.5-4.5,13.7-.1.4-.2.8-.4,1.1v.3c-.8,2.4-1.4,4.4-1.4,5.1-.2,3.8,3.1,5.9,5.7,5.7-.5-1.1-.5-1.9-.2-3.3,0-.6.5-2.4,1.4-4.7.1-.4.2-.7.4-1.1h0c.2-.4.4-.8.6-1.2,3.7-6.7,10.1-17.3,12.2-17.3s.7.6.6,1.7c-.2,3.4-3.8,11.6-5.2,15.7-.9,2.7-1.1,4-1.1,5.3-.1,4.3,3.6,5.8,5.7,5.8s4.7-3.7,7.3-7.4c-.3,5.3,2.7,7.4,5.9,7.4,6.5,0,13.3-5,16-9.5.3-.5-.3-1.2-.7-.9ZM246.1,28.9c.2,0,.5,0,.7.1-1.1,5.2-4.7,13.7-11,14,2.7-6.6,7.1-14.2,10.3-14.2Z" fill="#fff" stroke="#fff" stroke-miterlimit="10" stroke-width="3"/>
      <path d="M303.8,9.8c-2,0-6.3,5.6-10.2,11.9.7-1.9,1.3-3.6,1.6-4.7.5-1.4.5-2.4.4-2.7-.5-1.4-2.5-2-5.3-4.4-11.6,4.4-25.7,11.5-28.7,16.8-2.6,4.5-.9,9.8,3.8,12,0-3,.8-5.8,2.3-8.1,3.1-4.9,12.3-12.2,20.9-15.6-2.3,6.6-5.4,15.2-7.7,21.5-2.2,6.1-4.3,11.9-6.6,16-1.7,2.9-3.6,4.8-5.8,4.8-5.8,0,1.3-9.1,1.7-11.2.1-1-.8-2.8-2.6-4.4-5.5,5.6-9.6,17.3,2,17.6,4.9,0,8.9-2.6,11.6-6.7,2.1-3.2,4.6-9.2,6.9-15.3.8-2.2,1.8-4.7,2.8-7.3,4.5-7.6,10.9-16.9,12.7-16.9,3.1,0-3.1,17.2-9.2,22.7-1.4,1.3-3.9,2.6-5.8,2,1,2.6,3.2,4.6,6.1,4.6,7.9,0,23.6-32.9,9.2-32.6Z" fill="#fff" stroke="#fff" stroke-miterlimit="10" stroke-width="3"/>
      <path d="M328.5,48.8c0,1.1.3,2.1.7,2.9,1.1,2,3.2,2.9,5.5,2.9,5.9,0,22.3-21.6,20-28.7-1-2.5-5.6-1.2-5.8-.8,4.8,5.3-10.9,27.7-13.7,27.7-1.9,0-.4-4.2-.3-4.7,1-3,2.4-7.5,4.5-12.5,3.4-7.9,2.9-5.4-2.8-10.4-1.7,3.7-3,7.6-4.4,11.3-1.2,3.5-2.2,6.3-2.8,8.5-2.4,3.5-5.8,7.9-6.9,7.9s-.7-.7-.7-1.6c0-2.1,2.5-8.3,5.6-15.6,3.4-7.9,2.9-5.4-2.8-10.4-1.6,4.1-3.2,8.1-4.6,11.7-3.8,6.7-9.5,15.8-11.4,15.8-2.9,0,5-20.2,10.5-23.3,1.2-.7,2.2-.9,3.5-.5-.9-2.4-3.1-4.6-5.9-4.6-7.3,0-22.1,30.2-8.5,30.2s6.1-5.7,9.5-11.3c-.8,2.3-1.3,4.3-1.3,5.5-.1,4.3,3.7,5.8,5.8,5.8s4.1-3.2,6.6-6.6c0,.3,0,.6,0,.9Z" fill="#fff" stroke="#fff" stroke-miterlimit="10" stroke-width="3"/>
      <path d="M357.1,54.6c1.4,0,4.2-3.2,6.6-6.7,0,.4-.1.7-.2,1-.1,4.3,3.7,5.7,5.8,5.7s5.1-3.5,7.9-7.1c-.1.5-.2,1-.2,1.4-.1,4.2,3.7,5.7,5.7,5.7s4.8-4,7.4-7.8c-.2,2.8.4,5.1,1.9,6.5.8.8,2,1.3,3.5,1.3h1c12.2-.5,23-22.7,16.6-29-1.2-1.6-4.4-1.1-4.5-.8,5.2,3.5-4.5,26-11.6,27.8-.8.2-1.3.2-1.4-.9-.4-4,5.8-19.4,10.4-22.3,1.1-.7,2.2-.9,3.4-.5-1-2.5-3.2-4.6-6.1-4.6-4.5,0-11.3,11.1-12.9,19.9-2.3,3.5-6.2,8.5-7.3,8.5s-.7-.5-.6-1.5c0-2.1,2.4-8.3,5.6-15.5,3.3-7.9,2.9-5.5-2.9-10.4h0c-2.8,7.2-5.7,14.3-7.2,19.1-2.5,3.5-7.3,8.3-8.3,8.3s-.7-.5-.6-1.4c0-2.2,8.5-23.6,11.6-31,3.4-7.9,2.9-5.5-2.8-10.5-.3.4-1.7,4.4-2.1,5.2-.8,2.2-1.7,4.5-2.7,6.9-3.1,7.8-6.6,16.9-8.4,22.5-2.4,3.5-6.1,8.4-7.2,8.4s-.7-.5-.6-1.5c0-2.1,2.4-8.3,5.6-15.5,3.3-7.9,2.9-5.5-2.9-10.4h0c-3.9,9.9-8,19.9-8.2,23.6-.1,4.2,3.7,5.7,5.7,5.7Z" fill="#fff" stroke="#fff" stroke-miterlimit="10" stroke-width="3"/>
      <path d="M364.8,24.4c2,0,4.1-2,4.4-4.6.4-2.5-1-4.6-3.1-4.6s-4.1,2.1-4.4,4.6c-.3,2.5,1.1,4.6,3.2,4.6Z" fill="#fff" stroke="#fff" stroke-miterlimit="10" stroke-width="3"/>
      <path d="M390.6,24.4c2,0,4.1-2,4.4-4.6.4-2.5-1-4.6-3.1-4.6s-4.1,2.1-4.4,4.6c-.3,2.5,1.1,4.6,3.2,4.6Z" fill="#fff" stroke="#fff" stroke-miterlimit="10" stroke-width="3"/>
      <path d="M444.3,43.4c1.4-2.6-1-3.7-2-2.7-.5.4-.7,1-.5,1.6.2.5.5.9.7,1.3-2.3,3.5-7.4,9.1-8.4,9.1s-.7-.5-.7-1.5c0-1,.4-2.2,1.3-4.9,1.7-4.7,4.7-10.8,4.9-15.8,0-1.9-.4-3.6-1.4-4.7-.9-1-2.2-1.5-4-1.5s-6.5,6.2-9.9,12c.1-.2.2-.5.3-.7,3.1-7.8,3.5-5.1-2.7-10.5-2.5,6.2-4.9,12.2-6.7,17.4-1,2.8-1.6,4.7-1.6,5.6-.1,3.8,3.1,5.8,5.7,5.8-.4-1.2-.5-2-.2-3.4,0-.5.5-2.2,1.3-4.5.2-.5.4-1,.6-1.4,3.4-6.6,10.6-18.3,12.7-18.3s.7.6.7,1.7c-.2,3.4-3.9,11.6-5.2,15.6-.9,2.6-1.2,4-1.3,5.3,0,4.3,3.6,5.8,5.7,5.8s6.9-5.6,9.7-10h.1c1.6,2.5,1.3,5.3-.5,7.6-12.8,16.3-88.6-3.2-109,6.7-6.2,3.1-8.4,8.6-5.7,14.7,2.7-2.8,5.7-5,10.6-6.5,31.4-10.2,95.5,4.9,106-12.2,2.5-4.1,1.9-7.6-.5-11.5Z" fill="#fff" stroke="#fff" stroke-miterlimit="10" stroke-width="3"/>
    </g>
  </g>
  <g id="Layer_1" data-name="Layer 1">
    <g>
      <path d="M62.6,5.9c-1.1-1.7-4.4-2.7-8.3-2.3,1.1,1.4,1.4,2.8,1.4,4.3,0,10.4-21.2,40.5-30,45.5,0-.2,0-.5,0-.9.2-1.3.9-3.2,1.2-4,2.3-7,7.7-20.2,10.4-26.4,3.7-8.8,3.2-6.1-3.1-11.5h-.1l-.8-.9C21.7,14.1,7.5,21.3,4.5,26.7c-2.7,4.4-.9,9.8,3.8,12.1,0-3.1.9-5.8,2.3-8.2,3.2-5.1,13.1-13,22-16.1-3.9,9.9-10.1,25.1-12.4,32.6-.8,2.3-1.3,4.3-.4,6.5.8,2,2.6,3.4,4.4,3.5,7.2.6,44.9-41.7,38.3-51.1Z" fill="#231f20" stroke-width="0"/>
      <path d="M58.4,52.7c-.4,0-.7-.5-.6-1.5,0-2.1,2.4-8.3,5.6-15.5,3.3-7.9,2.9-5.5-2.9-10.4h0c-3.9,9.9-8,19.9-8.2,23.6-.1,4.2,3.7,5.7,5.7,5.7s4.4-3.5,7-7.1c-.2,4.1,1.2,7.1,5.5,7.1s6.9-6.7,10.2-12.7c-1.1,3.4-1.9,5.9-1.9,6.9,0,4.3,3.7,5.8,5.7,5.8s4.4-3.4,6.9-7c0,5,2.8,7,5.9,7,5.5,0,11.1-3.5,14.4-7.3,0,2.6.5,4.7,1.9,6,.8.8,2,1.3,3.5,1.3h1c12.2-.5,23-22.7,16.6-29-1.2-1.6-4.4-1.1-4.5-.8,5.2,3.5-4.5,26-11.6,27.8-.8.2-1.3.2-1.4-.9-.4-4,5.8-19.4,10.4-22.3,1.1-.7,2.2-.9,3.4-.5-1-2.5-3.2-4.6-6.1-4.6-4.7,0-11.9,12.1-13.1,21-2.7,3.6-9,7.5-13.3,7.4-1.3,0-2-.7-1.6-2.8.3-1.5.9-3.4,1.7-5.6,6.8.8,15.1-5.7,14.7-12.4-.2-1.2-.5-2.1-1.5-3.4-1.5-1.9-3.8-4.3-6.3-4.3-4.6,0-12.2,11.9-13.9,20.8-2.4,3.4-5.8,7.6-6.7,7.6s-.7-.5-.7-1.4c0-2.1,8.5-23.5,11.6-30.8,3.4-7.9,2.9-5.4-2.8-10.4-.3.5-1.7,4.4-2.1,5.2-.8,2.1-1.7,4.4-2.7,6.8-1.7,4.3-3.5,8.9-5.1,13-3.6,6.8-10.3,17.6-12.4,17.6s5.3-20,10.8-23.2c1.1-.7,2.2-1,3.4-.5-.9-2.5-3.1-4.6-5.9-4.6-4.6,0-12.1,11.7-13.8,20.5-2.4,3.5-5.8,7.9-6.9,7.9ZM109.4,28.9c.2,0,.5,0,.7.1-1.1,5.2-4.7,13.7-11,14,2.7-6.6,7.1-14.2,10.3-14.2Z" fill="#231f20" stroke-width="0"/>
      <path d="M65.7,24.4c2,0,4.1-2,4.4-4.6.4-2.5-1-4.6-3.1-4.6s-4.1,2.1-4.4,4.6c-.3,2.5,1.1,4.6,3.2,4.6Z" fill="#231f20" stroke-width="0"/>
      <path d="M157.5,25.2c-1.1,2.9-2.6,6.8-4.3,10.9-3.7,6.8-9.9,16.6-11.8,16.6-2.9,0,5.2-20.1,10.7-23.3,1.1-.7,2.2-1,3.4-.5-.9-2.4-3.1-4.6-5.9-4.6-7.4,0-22.4,30.2-8.7,30.2s5.8-5.2,9.1-10.5c-1.7,4.1-3.2,8.2-4.6,11.6l-.9,2.5c-1.3,3.1-2.9,5.5-5.5,7.6-1.3,1-5.4,3.3-6.9,2-.3-1.7,2.3-3.9,6.2-6.2.8-.5,1.8-1.1,2.5-1.4-.9-2.5-1.4-1.2-4.4-.5-25.9,5.8-83.5-9.2-100.7-1-6.3,3.1-8.4,8.7-5.7,14.7,2.7-2.8,5.7-4.9,10.5-6.5,24.7-7.9,69.5.4,93.6-4.8-2.3,1.7-4,3.5-4.3,5.3-.1.8.2,1.4.9,1.9,1.3.9,3.9,1,6.2.4,3.5-.8,6.7-2.7,9.3-5.2,3.9-3.7,4.7-6.1,6.5-10.7l1-2.5c2.1-4.9,4.9-11.3,6.7-15.7,3.2-7.8,2.6-5.6-3.1-10.4Z" fill="#231f20" stroke-width="0"/>
      <path d="M249.3,44.1c-2,3.9-9.2,8.6-14,8.5-1.3,0-2-.7-1.6-2.8.3-1.5.9-3.4,1.7-5.6,6.8.8,15.1-5.7,14.7-12.4-.2-1.2-.5-2.1-1.5-3.4-1.5-1.9-3.8-4.3-6.3-4.3-4.6,0-11.9,11.4-13.8,20.3-2.4,3.5-6.3,8.2-7.2,8.2s-.8-.5-.7-1.5c0-1,.4-2.2,1.3-4.9,1.7-4.6,4.7-10.8,4.8-15.8,0-2-.4-3.7-1.4-4.8-.9-.9-2.2-1.4-4-1.4s-6.8,6.5-10.3,12.5c.7-2,1.1-4.3,1.2-6.3,0-2-.4-3.7-1.4-4.8-.9-.9-2.2-1.4-4-1.4s-6.2,5.6-9.5,11.2c3.1-7.8,3.5-5-2.8-10.4-2.5,6.2-4.9,12.2-6.7,17.3-.2.6-.4,1.2-.6,1.7-2.4,3.5-6.2,8.6-7.3,8.6s-.7-.7-.7-1.6c0-2.1,2.5-8.3,5.6-15.6,3.4-7.9,2.9-5.4-2.8-10.4-1.6,4.1-3.2,8.1-4.6,11.7-3.8,6.7-9.5,15.8-11.4,15.8-2.9,0,5-20.2,10.5-23.3,1.2-.7,2.2-.9,3.5-.5-.9-2.4-3.1-4.6-5.9-4.6-7.3,0-22.1,30.2-8.5,30.2s6.1-5.7,9.5-11.3c-.8,2.3-1.3,4.3-1.3,5.5-.1,4.3,3.7,5.8,5.8,5.8s4.2-3.3,6.7-6.8c0,.1,0,.2,0,.3,0,3.8,3.1,5.9,5.8,5.7-.5-1.1-.5-1.9-.3-3.3,0-.6.5-2.2,1.4-4.6.3-.7.5-1.6.9-2.4,3.7-6.7,10.2-17.3,12.2-17.3s.8.6.7,1.7c-.2,3.2-3,9.5-4.5,13.7-.1.4-.2.8-.4,1.1v.3c-.8,2.4-1.4,4.4-1.4,5.1-.2,3.8,3.1,5.9,5.7,5.7-.5-1.1-.5-1.9-.2-3.3,0-.6.5-2.4,1.4-4.7.1-.4.2-.7.4-1.1h0c.2-.4.4-.8.6-1.2,3.7-6.7,10.1-17.3,12.2-17.3s.7.6.6,1.7c-.2,3.4-3.8,11.6-5.2,15.7-.9,2.7-1.1,4-1.1,5.3-.1,4.3,3.6,5.8,5.7,5.8s4.7-3.7,7.3-7.4c-.3,5.3,2.7,7.4,5.9,7.4,6.5,0,13.3-5,16-9.5.3-.5-.3-1.2-.7-.9ZM246.1,28.9c.2,0,.5,0,.7.1-1.1,5.2-4.7,13.7-11,14,2.7-6.6,7.1-14.2,10.3-14.2Z" fill="#231f20" stroke-width="0"/>
      <path d="M303.8,9.8c-2,0-6.3,5.6-10.2,11.9.7-1.9,1.3-3.6,1.6-4.7.5-1.4.5-2.4.4-2.7-.5-1.4-2.5-2-5.3-4.4-11.6,4.4-25.7,11.5-28.7,16.8-2.6,4.5-.9,9.8,3.8,12,0-3,.8-5.8,2.3-8.1,3.1-4.9,12.3-12.2,20.9-15.6-2.3,6.6-5.4,15.2-7.7,21.5-2.2,6.1-4.3,11.9-6.6,16-1.7,2.9-3.6,4.8-5.8,4.8-5.8,0,1.3-9.1,1.7-11.2.1-1-.8-2.8-2.6-4.4-5.5,5.6-9.6,17.3,2,17.6,4.9,0,8.9-2.6,11.6-6.7,2.1-3.2,4.6-9.2,6.9-15.3.8-2.2,1.8-4.7,2.8-7.3,4.5-7.6,10.9-16.9,12.7-16.9,3.1,0-3.1,17.2-9.2,22.7-1.4,1.3-3.9,2.6-5.8,2,1,2.6,3.2,4.6,6.1,4.6,7.9,0,23.6-32.9,9.2-32.6Z" fill="#231f20" stroke-width="0"/>
      <path d="M328.5,48.8c0,1.1.3,2.1.7,2.9,1.1,2,3.2,2.9,5.5,2.9,5.9,0,22.3-21.6,20-28.7-1-2.5-5.6-1.2-5.8-.8,4.8,5.3-10.9,27.7-13.7,27.7-1.9,0-.4-4.2-.3-4.7,1-3,2.4-7.5,4.5-12.5,3.4-7.9,2.9-5.4-2.8-10.4-1.7,3.7-3,7.6-4.4,11.3-1.2,3.5-2.2,6.3-2.8,8.5-2.4,3.5-5.8,7.9-6.9,7.9s-.7-.7-.7-1.6c0-2.1,2.5-8.3,5.6-15.6,3.4-7.9,2.9-5.4-2.8-10.4-1.6,4.1-3.2,8.1-4.6,11.7-3.8,6.7-9.5,15.8-11.4,15.8-2.9,0,5-20.2,10.5-23.3,1.2-.7,2.2-.9,3.5-.5-.9-2.4-3.1-4.6-5.9-4.6-7.3,0-22.1,30.2-8.5,30.2s6.1-5.7,9.5-11.3c-.8,2.3-1.3,4.3-1.3,5.5-.1,4.3,3.7,5.8,5.8,5.8s4.1-3.2,6.6-6.6c0,.3,0,.6,0,.9Z" fill="#231f20" stroke-width="0"/>
      <path d="M357.1,54.6c1.4,0,4.2-3.2,6.6-6.7,0,.4-.1.7-.2,1-.1,4.3,3.7,5.7,5.8,5.7s5.1-3.5,7.9-7.1c-.1.5-.2,1-.2,1.4-.1,4.2,3.7,5.7,5.7,5.7s4.8-4,7.4-7.8c-.2,2.8.4,5.1,1.9,6.5.8.8,2,1.3,3.5,1.3h1c12.2-.5,23-22.7,16.6-29-1.2-1.6-4.4-1.1-4.5-.8,5.2,3.5-4.5,26-11.6,27.8-.8.2-1.3.2-1.4-.9-.4-4,5.8-19.4,10.4-22.3,1.1-.7,2.2-.9,3.4-.5-1-2.5-3.2-4.6-6.1-4.6-4.5,0-11.3,11.1-12.9,19.9-2.3,3.5-6.2,8.5-7.3,8.5s-.7-.5-.6-1.5c0-2.1,2.4-8.3,5.6-15.5,3.3-7.9,2.9-5.5-2.9-10.4h0c-2.8,7.2-5.7,14.3-7.2,19.1-2.5,3.5-7.3,8.3-8.3,8.3s-.7-.5-.6-1.4c0-2.2,8.5-23.6,11.6-31,3.4-7.9,2.9-5.5-2.8-10.5-.3.4-1.7,4.4-2.1,5.2-.8,2.2-1.7,4.5-2.7,6.9-3.1,7.8-6.6,16.9-8.4,22.5-2.4,3.5-6.1,8.4-7.2,8.4s-.7-.5-.6-1.5c0-2.1,2.4-8.3,5.6-15.5,3.3-7.9,2.9-5.5-2.9-10.4h0c-3.9,9.9-8,19.9-8.2,23.6-.1,4.2,3.7,5.7,5.7,5.7Z" fill="#231f20" stroke-width="0"/>
      <path d="M364.8,24.4c2,0,4.1-2,4.4-4.6.4-2.5-1-4.6-3.1-4.6s-4.1,2.1-4.4,4.6c-.3,2.5,1.1,4.6,3.2,4.6Z" fill="#231f20" stroke-width="0"/>
      <path d="M390.6,24.4c2,0,4.1-2,4.4-4.6.4-2.5-1-4.6-3.1-4.6s-4.1,2.1-4.4,4.6c-.3,2.5,1.1,4.6,3.2,4.6Z" fill="#231f20" stroke-width="0"/>
      <path d="M444.3,43.4c1.4-2.6-1-3.7-2-2.7-.5.4-.7,1-.5,1.6.2.5.5.9.7,1.3-2.3,3.5-7.4,9.1-8.4,9.1s-.7-.5-.7-1.5c0-1,.4-2.2,1.3-4.9,1.7-4.7,4.7-10.8,4.9-15.8,0-1.9-.4-3.6-1.4-4.7-.9-1-2.2-1.5-4-1.5s-6.5,6.2-9.9,12c.1-.2.2-.5.3-.7,3.1-7.8,3.5-5.1-2.7-10.5-2.5,6.2-4.9,12.2-6.7,17.4-1,2.8-1.6,4.7-1.6,5.6-.1,3.8,3.1,5.8,5.7,5.8-.4-1.2-.5-2-.2-3.4,0-.5.5-2.2,1.3-4.5.2-.5.4-1,.6-1.4,3.4-6.6,10.6-18.3,12.7-18.3s.7.6.7,1.7c-.2,3.4-3.9,11.6-5.2,15.6-.9,2.6-1.2,4-1.3,5.3,0,4.3,3.6,5.8,5.7,5.8s6.9-5.6,9.7-10h.1c1.6,2.5,1.3,5.3-.5,7.6-12.8,16.3-88.6-3.2-109,6.7-6.2,3.1-8.4,8.6-5.7,14.7,2.7-2.8,5.7-5,10.6-6.5,31.4-10.2,95.5,4.9,106-12.2,2.5-4.1,1.9-7.6-.5-11.5Z" fill="#231f20" stroke-width="0"/>
    </g>
  </g>
</svg>