<?xml version="1.0" encoding="UTF-8"?>
<svg xmlns="http://www.w3.org/2000/svg" version="1.1" viewBox="0 0 400 400" fill="black" fill-rule="evenodd">
  <g>
    <path d="M192.8,27.3c-.5,2.1-.4,5.1.3,6.6.7,1.5,1.7,12.6,2.1,24.6.7,18,1.2,21.9,3.2,21.9s2.4-3.6,2.8-21.3c.3-16.5,1-21.8,2.7-23.2,2.8-2.3,3-8,.4-10.6-3.5-3.5-10.5-2.3-11.5,2M215,37.7c-9.6,2.2-10.3,3.5-10.3,17.2s.5,13.8,8.5,10.8c4.8-1.8,27.9-4.8,28.9-3.8.4.4.5,6.1.3,12.6l-.4,11.9,9.2-.8c16.7-1.5,33.4-13.4,37.9-26.9,2.3-7.1,1.3-8.5-3.2-4.3-4.7,4.4-17,7-26.5,5.7-9.1-1.3-9.9-2.1-10.9-12.5-1.2-11.3-13-14.8-33.5-10M202.2,88.5c9.4,24.6,46.6,72.4,79.8,102.6,10.3,9.4,19.2,17.9,19.7,18.9.6,1.2,30.9,149.9,31.9,156.8.2,1.1,61.7-22.4,61.7-23.6,0-.8-7.6-25.4-17-54.7s-19.2-60.4-21.9-69c-5.7-18.7-17-35-24.2-35s-40.4-25.9-59.7-40c-22.3-16.3-48.2-37.8-59.9-49.7-8.6-8.8-12.2-10.9-10.3-6.2M182,99.1c-20,20.5-56.1,47.8-100.8,76.3-13.3,8.5-25.8,17-27.8,19-3.9,3.8-49.1,141.2-48.4,146.8.5,4,57.2,26.7,59.9,24,.4-.4,7.8-35.3,16.3-77.6,8.5-42.3,16.1-77.8,16.7-78.8.6-1.1,7.2-7.3,14.6-13.8,17.6-15.6,38.5-37.8,50.4-53.8,9.2-12.2,33.8-50.6,33.8-52.6,0-3-5.1.7-14.8,10.6M195.3,101.9c-9.6,33.4-24.1,62.7-50.3,101.6l-9.2,13.7-3.9,46.2c-4.2,50-3.9,48.7-15.1,62.2-8.5,10.2-9.1,14.6-2.7,17.7,6.4,3.1,8.8,6.7,12.8,20l3.8,12.5,10.1.5,10.1.5,23-66.1c12.7-36.3,23.5-67.7,24-69.7,1.4-5.4,4.3,1.8,35.8,89.5,17.6,49.1,15.9,46.1,26.4,46.1h8.2l4.9-12.9q5.8-15.2,12.3-19.7c7.1-4.9,6.5-7.8-4.3-20.7-11.3-13.5-10.1-8.3-14.1-60.8-2.6-33.9-3.9-44-6.1-47.7-1.5-2.6-8.4-13.5-15.3-24.2-19.9-31-35.2-63.3-41.8-88.3-3.9-15-4.4-15-8.6-.3M172.6,289.1c-10.7,29.6-21.3,59-23.5,65.3l-4.1,11.4-2.7-6.1c-3.4-7.6-11.1-16.5-18.1-20.8l-5.4-3.3,8.1-8.8c17.5-19.2,49.6-64.1,60.7-85,6.4-12,5.4-8.8-14.9,47.3M232.8,274.2c11.3,16.8,23.9,33.3,37.3,48.8,12.7,14.7,12.3,13.9,7.4,15.1-5.8,1.4-16.2,12.9-19.3,21.2l-2.8,7.5-23.4-64.9c-12.9-35.7-23.7-65.7-24-66.6-.3-.9,3.2,4.6,7.9,12.3,4.6,7.7,12.2,19.7,16.8,26.6"/>
  </g>
</svg>