<?xml version="1.0" encoding="UTF-8"?>
<svg xmlns="http://www.w3.org/2000/svg" version="1.1" viewBox="0 0 450 76" fill="black">
  <path d="M24.5,56.5c-1.8-.2-3.6-1.6-4.4-3.5-.9-2.2-.4-4.1.4-6.5,2.3-7.4,8.5-22.7,12.4-32.6-8.9,3.1-18.8,11-22,16.1-1.4,2.5-2.4,5.2-2.3,8.2-4.7-2.2-6.5-7.6-3.8-12.1,3-5.4,17.2-12.5,28.9-17l.8.9h.1c6.4,5.5,6.8,2.8,3.1,11.5-2.8,6.2-8.1,19.4-10.4,26.4-.3.8-1,2.7-1.2,4,0,.4,0,.7,0,.9,8.8-5,30-35.2,30-45.5s-.4-2.9-1.4-4.3c3.9-.4,7.2.5,8.3,2.3,6.5,9.4-31.1,51.7-38.3,51.1Z"/>
  <path d="M66.8,44.5c-2.8,4.3-6.8,9.5-8.6,9.5s-5.8-1.5-5.7-5.7c.1-3.7,4.3-13.7,8.2-23.5h0c5.8,4.9,6.2,2.5,2.9,10.3-3.2,7.3-5.5,13.4-5.6,15.5,0,1,.2,1.5.6,1.5,1.1,0,5-5,7.4-8.6.5-.3,1,.2.8.9ZM70.3,19.3c-.3,2.5-2.3,4.6-4.4,4.6s-3.5-2-3.2-4.6c.4-2.5,2.4-4.6,4.4-4.6s3.5,2.1,3.1,4.6Z"/>
  <path d="M84.5,50.6c0,.9.2,1.4.7,1.4,1,0,5-5,7.3-8.5.6-.2,1.1.2.8.9-2.8,4.3-6.8,9.5-8.6,9.5s-5.8-1.4-5.7-5.8c0-1,.8-3.5,1.9-6.9-3.3,5.9-7.9,12.7-10.2,12.7-13.6,0,1.3-30.2,8.6-30.2s5,2.2,5.9,4.6c-1.2-.4-2.3-.2-3.4.5-5.5,3.1-13.7,23.2-10.8,23.2s8.8-10.8,12.4-17.6c1.6-4.1,3.4-8.8,5.1-13,1-2.5,1.9-4.7,2.7-6.8.4-.8,1.8-4.7,2.1-5.2,5.7,5,6.2,2.6,2.8,10.4-3.1,7.3-11.6,28.7-11.6,30.8Z"/>
  <path d="M113.5,44.5c-2.7,4.6-9.5,9.5-16,9.5s-6.8-2.5-5.8-9c1.4-8.9,9.2-21.3,14-21.3s4.8,2.5,6.3,4.3c1,1.3,1.3,2.2,1.5,3.4.4,6.7-7.9,13.1-14.7,12.4-.8,2.2-1.4,4.1-1.7,5.6-.4,2.1.3,2.8,1.6,2.8,4.8.1,12-4.6,14-8.5.4-.3,1,.4.7.9ZM99.3,42.5c6.2-.3,9.9-8.8,11-14-.2-.1-.5-.1-.7-.1-3.1,0-7.6,7.6-10.3,14.2Z"/>
  <path d="M118.3,54h-1c-1.5,0-2.6-.5-3.5-1.3-6.5-5.7,4.7-28.9,11.3-28.9s5,2.1,6.1,4.6c-1.3-.4-2.3-.1-3.4.5-4.6,2.8-10.7,18.2-10.4,22.3.1,1.1.5,1.1,1.4.9,7.1-1.8,16.8-24.3,11.6-27.8.1-.3,3.3-.8,4.5.8,6.5,6.3-4.3,28.6-16.6,29Z"/>
  <path d="M160.7,35c-1.8,4.3-4.6,10.7-6.7,15.7l-1,2.5c-1.8,4.6-2.6,7-6.5,10.7-2.6,2.5-5.8,4.4-9.3,5.2-2.3.5-5,.5-6.2-.4-.7-.4-1-1.1-.9-1.9.2-1.9,2-3.7,4.3-5.3-24.1,5.2-68.9-3.1-93.6,4.8-4.8,1.6-7.8,3.7-10.5,6.5-2.7-6-.6-11.6,5.7-14.7,17.2-8.3,74.8,6.7,100.7,1,3-.7,3.5-2,4.4.5-.7.3-1.7,1-2.5,1.4-4,2.3-6.5,4.5-6.2,6.2,1.5,1.3,5.6-1,6.9-2,2.6-2,4.2-4.5,5.5-7.6l.9-2.5c1.3-3.5,2.9-7.5,4.6-11.6-3.2,5.3-7,10.5-9.1,10.5-13.7,0,1.3-30.2,8.7-30.2s5,2.2,5.9,4.6c-1.3-.4-2.3-.1-3.4.5-5.5,3.2-13.7,23.3-10.7,23.3s8.1-9.8,11.8-16.6c1.7-4.1,3.2-8,4.3-10.9,5.6,4.8,6.3,2.6,3.1,10.4Z"/>
  <path d="M188.5,44.4c-2.8,4.4-6.9,9.6-8.6,9.6s-5.9-1.4-5.8-5.8c0-1.3.5-3.2,1.3-5.5-3.4,5.6-7.3,11.3-9.5,11.3-13.7,0,1.1-30.2,8.5-30.2s5,2.2,5.9,4.6c-1.3-.4-2.3-.1-3.5.5-5.5,3.2-13.4,23.3-10.5,23.3s7.6-9.2,11.4-15.8c1.4-3.6,3-7.6,4.6-11.7,5.8,5,6.2,2.5,2.8,10.4-3.1,7.3-5.5,13.5-5.6,15.6,0,.9.2,1.6.7,1.6,1.1,0,5-5.2,7.4-8.7.5-.2,1.1.3.8.9Z"/>
  <path d="M229.8,44.4c-2.8,4.4-7.1,9.6-8.8,9.6s-5.8-1.4-5.7-5.8c0-1.3.2-2.6,1.1-5.3,1.4-4,5-12.2,5.2-15.7,0-1.1-.1-1.7-.6-1.7-2.1,0-8.6,10.6-12.2,17.3-.2.4-.4.8-.6,1.1h0c-.2.5-.3.8-.4,1.1-.8,2.3-1.3,4.1-1.4,4.7-.2,1.4-.2,2.2.2,3.3-2.6.2-5.9-1.9-5.7-5.7,0-.7.5-2.7,1.3-5.1v-.3c.2-.4.4-.7.5-1.1,1.5-4.1,4.3-10.5,4.5-13.7.1-1.1-.1-1.7-.7-1.7-2,0-8.5,10.6-12.2,17.3-.4.8-.6,1.7-.9,2.4-.9,2.4-1.4,4-1.4,4.6-.2,1.4-.2,2.2.3,3.3-2.8.2-5.9-1.9-5.8-5.7,0-.8.6-2.8,1.6-5.6,1.8-5.2,4.2-11.1,6.7-17.3,6.2,5.4,5.9,2.6,2.8,10.4,3.3-5.6,7.3-11.2,9.5-11.2s3.1.5,4,1.4c1,1.1,1.4,2.8,1.4,4.8,0,2-.5,4.3-1.2,6.3,3.5-6.1,7.9-12.5,10.3-12.5s3.1.5,4,1.4c1,1.1,1.4,2.8,1.4,4.8-.1,5-3.1,11.2-4.8,15.8-1,2.7-1.3,3.8-1.3,4.9,0,1,.2,1.5.7,1.5.9,0,5.1-5.1,7.5-8.6.5-.3,1,.2.8.8Z"/>
  <path d="M250.3,44.5c-2.7,4.6-9.5,9.5-16,9.5s-6.8-2.5-5.8-9c1.4-8.9,9.2-21.3,14-21.3s4.8,2.5,6.3,4.3c1,1.3,1.3,2.2,1.5,3.4.4,6.7-7.9,13.1-14.7,12.4-.8,2.2-1.4,4.1-1.7,5.6-.4,2.1.3,2.8,1.6,2.8,4.8.1,12-4.6,14-8.5.4-.3,1,.4.7.9ZM236,42.5c6.2-.3,9.9-8.8,11-14-.2-.1-.5-.1-.7-.1-3.1,0-7.6,7.6-10.3,14.2Z"/>
  <path d="M294.8,41.8c-2.9,0-5.2-2-6.1-4.6,1.9.6,4.3-.7,5.8-2,6.1-5.6,12.2-22.7,9.2-22.7s-8.2,9.4-12.7,16.9c-1,2.6-1.9,5.2-2.8,7.3-2.3,6.1-4.8,12.1-6.9,15.3-2.6,4.1-6.7,6.7-11.6,6.7-11.6-.2-7.6-12-2-17.6,1.9,1.7,2.8,3.4,2.6,4.4-.4,2.1-7.5,11.1-1.7,11.2,2.2,0,4.1-1.9,5.8-4.8,2.3-4.1,4.4-9.9,6.6-16,2.3-6.2,5.3-14.9,7.7-21.5-8.6,3.4-17.8,10.7-20.9,15.6-1.4,2.3-2.3,5.1-2.3,8.1-4.7-2.2-6.4-7.5-3.8-12,3.1-5.3,17.2-12.4,28.7-16.8,2.8,2.4,4.7,3.1,5.3,4.4.1.3.1,1.3-.4,2.7-.3,1.1-.9,2.8-1.6,4.7,3.9-6.2,8.2-11.8,10.2-11.9,14.5-.4-1.3,32.6-9.2,32.6Z"/>
  <path d="M330.8,44.4c-2.8,4.4-6.9,9.6-8.6,9.6s-5.9-1.4-5.8-5.8c0-1.3.5-3.2,1.3-5.5-3.4,5.6-7.3,11.3-9.5,11.3-13.7,0,1.1-30.2,8.5-30.2s5,2.2,5.9,4.6c-1.3-.4-2.3-.1-3.5.5-5.5,3.2-13.4,23.3-10.5,23.3s7.6-9.2,11.4-15.8c1.4-3.6,3-7.6,4.6-11.7,5.8,5,6.2,2.5,2.8,10.4-3.1,7.3-5.5,13.5-5.6,15.6,0,.9.2,1.6.7,1.6,1.1,0,5-5.2,7.4-8.7.5-.2,1.1.3.8.9Z"/>
  <path d="M334.8,54c-2.2,0-4.3-.9-5.5-2.9-.4-.8-.7-1.7-.7-2.9,0-2.3,1.4-6.5,3.5-12.5,1.4-3.7,2.7-7.6,4.4-11.3,5.8,5,6.2,2.6,2.8,10.4-2.1,5-3.5,9.5-4.5,12.5-.1.5-1.6,4.6.3,4.7,2.8,0,18.5-22.4,13.7-27.7.2-.4,4.8-1.7,5.8.8,2.3,7.1-14,28.7-20,28.7Z"/>
  <path d="M365.9,44.5c-2.8,4.3-6.8,9.5-8.6,9.5s-5.8-1.5-5.7-5.7c.1-3.7,4.3-13.7,8.2-23.5h0c5.8,4.9,6.2,2.5,2.9,10.3-3.2,7.3-5.5,13.4-5.6,15.5,0,1,.2,1.5.6,1.5,1.1,0,5-5,7.4-8.6.5-.3,1,.2.8.9ZM369.4,19.3c-.3,2.5-2.3,4.6-4.4,4.6s-3.5-2-3.2-4.6c.4-2.5,2.4-4.6,4.4-4.6s3.5,2.1,3.1,4.6Z"/>
  <path d="M369.4,50.7c0,.9.1,1.4.6,1.4,1.1,0,6.1-5,8.5-8.6.5-.3,1,.2.8.8-2.8,4.4-7.9,9.6-9.7,9.6s-5.9-1.4-5.8-5.7c.1-2.6,5.3-16.1,9.6-27,1-2.4,1.9-4.7,2.7-6.9.4-.7,1.8-4.7,2.1-5.2,5.8,5,6.2,2.6,2.8,10.5-3.1,7.4-11.6,28.8-11.6,31Z"/>
  <path d="M391.6,44.5c-2.8,4.3-6.8,9.5-8.6,9.5s-5.8-1.5-5.7-5.7c.1-3.7,4.3-13.7,8.2-23.5h0c5.8,4.9,6.2,2.5,2.9,10.3-3.2,7.3-5.5,13.4-5.6,15.5,0,1,.2,1.5.6,1.5,1.1,0,5-5,7.4-8.6.5-.3,1,.2.8.9ZM395.2,19.3c-.3,2.5-2.3,4.6-4.4,4.6s-3.5-2-3.2-4.6c.4-2.5,2.4-4.6,4.4-4.6s3.5,2.1,3.1,4.6Z"/>
  <path d="M396.9,54h-1c-1.5,0-2.6-.5-3.5-1.3-6.5-5.7,4.7-28.9,11.3-28.9s5,2.1,6.1,4.6c-1.3-.4-2.3-.1-3.4.5-4.6,2.8-10.7,18.2-10.4,22.3.1,1.1.5,1.1,1.4.9,7.1-1.8,16.8-24.3,11.6-27.8.1-.3,3.3-.8,4.5.8,6.5,6.3-4.3,28.6-16.6,29Z"/>
  <path d="M445,54.3c-10.5,17.2-74.6,2-106,12.2-4.9,1.5-7.9,3.7-10.6,6.5-2.7-6.1-.5-11.6,5.7-14.7,20.4-9.9,96.2,9.5,109-6.7,1.8-2.3,2.2-5.2.5-7.5h-.1c-2.8,4.3-7.9,9.9-9.7,9.9s-5.8-1.4-5.7-5.8c0-1.3.4-2.6,1.3-5.3,1.3-4,4.9-12.2,5.2-15.6,0-1.1-.1-1.7-.7-1.7-2.2,0-9.3,11.7-12.7,18.3-.2.5-.4,1-.6,1.4-.8,2.3-1.3,4-1.3,4.5-.2,1.4-.2,2.2.2,3.4-2.6,0-5.8-2-5.7-5.8,0-.8.6-2.8,1.6-5.6,1.8-5.2,4.1-11.2,6.7-17.4,6.2,5.4,5.8,2.7,2.7,10.5-.1.2-.2.5-.3.7,3.4-5.8,7.6-12,9.9-12s3.1.5,4,1.5c1.1,1.1,1.4,2.8,1.4,4.7-.1,5-3.1,11.2-4.9,15.8-.9,2.6-1.3,3.8-1.3,4.9,0,1,.1,1.5.7,1.5,1,0,6.1-5.6,8.4-9.1-.2-.4-.5-.8-.7-1.3-.2-.5,0-1.1.5-1.6,1.1-1,3.5.1,2,2.7,2.4,3.9,3,7.3.5,11.5Z"/>
</svg>